<?xml version="1.0" encoding="UTF-8" standalone="no"?>
<!-- Created with Inkscape (http://www.inkscape.org/) -->

<svg
   width="1280"
   height="1920"
   viewBox="0 0 338.66667 508"
   version="1.1"
   id="svg961"
   inkscape:export-filename="/home/esme/git_projects/lovebets_frontend/ui-template/src/assets/banner480_dark.png"
   inkscape:export-xdpi="96"
   inkscape:export-ydpi="96"
   inkscape:version="1.1.2 (0a00cf5339, 2022-02-04, custom)"
   sodipodi:docname="home_page.svg"
   xmlns:inkscape="http://www.inkscape.org/namespaces/inkscape"
   xmlns:sodipodi="http://sodipodi.sourceforge.net/DTD/sodipodi-0.dtd"
   xmlns:xlink="http://www.w3.org/1999/xlink"
   xmlns="http://www.w3.org/2000/svg"
   xmlns:svg="http://www.w3.org/2000/svg">
  <sodipodi:namedview
     id="namedview963"
     pagecolor="#505050"
     bordercolor="#eeeeee"
     borderopacity="1"
     inkscape:pageshadow="0"
     inkscape:pageopacity="0"
     inkscape:pagecheckerboard="0"
     inkscape:document-units="px"
     showgrid="false"
     units="px"
     width="1920px"
     height="1280px"
     inkscape:zoom="0.36763322"
     inkscape:cx="858.1923"
     inkscape:cy="898.99384"
     inkscape:window-width="1916"
     inkscape:window-height="1028"
     inkscape:window-x="0"
     inkscape:window-y="24"
     inkscape:window-maximized="1"
     inkscape:current-layer="layer1" />
  <defs
     id="defs958">
    <linearGradient
       inkscape:collect="always"
       id="linearGradient117896">
      <stop
         style="stop-color:#dec9ce;stop-opacity:1"
         offset="0"
         id="stop117892" />
      <stop
         style="stop-color:#a26e6e;stop-opacity:1"
         offset="1"
         id="stop117894" />
    </linearGradient>
    <linearGradient
       inkscape:collect="always"
       id="linearGradient111635">
      <stop
         style="stop-color:#940213;stop-opacity:1"
         offset="0"
         id="stop111631" />
      <stop
         style="stop-color:#200b0d;stop-opacity:1"
         offset="1"
         id="stop111633" />
    </linearGradient>
    <linearGradient
       inkscape:collect="always"
       id="linearGradient66643-7">
      <stop
         style="stop-color:#dfd9d8;stop-opacity:1;"
         offset="0"
         id="stop66639" />
      <stop
         style="stop-color:#ae8282;stop-opacity:1"
         offset="1"
         id="stop66641" />
    </linearGradient>
    <linearGradient
       inkscape:collect="always"
       id="linearGradient55410">
      <stop
         style="stop-color:#940213;stop-opacity:1;"
         offset="0"
         id="stop55406" />
      <stop
         style="stop-color:#db3940;stop-opacity:1"
         offset="1"
         id="stop55408" />
    </linearGradient>
    <linearGradient
       inkscape:collect="always"
       id="linearGradient37650">
      <stop
         style="stop-color:#da3842;stop-opacity:1"
         offset="0"
         id="stop37646" />
      <stop
         style="stop-color:#940213;stop-opacity:1"
         offset="1"
         id="stop37648" />
    </linearGradient>
    <linearGradient
       inkscape:collect="always"
       xlink:href="#linearGradient55410"
       id="linearGradient20596"
       x1="15.296131"
       y1="34.747093"
       x2="39.143559"
       y2="19.161978"
       gradientUnits="userSpaceOnUse"
       gradientTransform="translate(220.18171,224.75811)" />
    <radialGradient
       inkscape:collect="always"
       xlink:href="#linearGradient37650"
       id="radialGradient22132"
       cx="27.119791"
       cy="27.119791"
       fx="27.119791"
       fy="27.119791"
       r="26.590624"
       gradientUnits="userSpaceOnUse"
       gradientTransform="matrix(-0.23907559,-1.06277,2.9849768,-0.67148586,172.83324,298.91056)" />
    <radialGradient
       inkscape:collect="always"
       xlink:href="#linearGradient37650"
       id="radialGradient24042"
       cx="27.119791"
       cy="27.119791"
       fx="27.119791"
       fy="27.119791"
       r="20.042187"
       gradientUnits="userSpaceOnUse"
       gradientTransform="matrix(-0.20299911,-0.98677199,3.0310078,-0.62354008,170.6065,295.54922)" />
    <radialGradient
       inkscape:collect="always"
       xlink:href="#linearGradient37650"
       id="radialGradient64993"
       cx="27.083057"
       cy="27.119791"
       fx="27.083057"
       fy="27.119791"
       r="18.609953"
       gradientUnits="userSpaceOnUse"
       gradientTransform="matrix(-0.46022977,-1.1820134,2.9057362,-1.1313801,180.96297,314.57322)" />
    <linearGradient
       inkscape:collect="always"
       xlink:href="#linearGradient55410"
       id="linearGradient65689"
       x1="39.471214"
       y1="21.942657"
       x2="16.23118"
       y2="33.866486"
       gradientUnits="userSpaceOnUse"
       gradientTransform="translate(220.18171,224.75811)" />
    <radialGradient
       inkscape:collect="always"
       xlink:href="#linearGradient66643-7"
       id="radialGradient66645"
       cx="27.119791"
       cy="27.119791"
       fx="27.119791"
       fy="27.119791"
       r="26.458332"
       gradientTransform="matrix(-0.88821588,-0.89786237,1.6045641,-1.5873249,227.87429,319.27566)"
       gradientUnits="userSpaceOnUse" />
    <radialGradient
       inkscape:collect="always"
       xlink:href="#linearGradient66643-7"
       id="radialGradient85269"
       cx="27.119789"
       cy="27.119793"
       fx="27.119789"
       fy="27.119793"
       r="18.573219"
       gradientTransform="matrix(-0.93493019,-1.5464244,1.7454034,-1.055228,225.32163,322.43417)"
       gradientUnits="userSpaceOnUse" />
    <radialGradient
       inkscape:collect="always"
       xlink:href="#linearGradient66643-7"
       id="radialGradient92817"
       cx="-42.228165"
       cy="30.647808"
       fx="-42.228165"
       fy="30.647808"
       r="10.652055"
       gradientTransform="matrix(-0.39460853,-1.2370077,4.9076852,-1.5655638,-209.30155,26.392347)"
       gradientUnits="userSpaceOnUse" />
    <radialGradient
       inkscape:collect="always"
       xlink:href="#linearGradient66643-7"
       id="radialGradient93745"
       gradientUnits="userSpaceOnUse"
       gradientTransform="matrix(-0.39460853,-1.2370077,4.9076852,-1.5655638,-209.30155,26.392347)"
       cx="-42.228165"
       cy="30.647808"
       fx="-42.228165"
       fy="30.647808"
       r="10.652055" />
    <radialGradient
       inkscape:collect="always"
       xlink:href="#linearGradient66643-7"
       id="radialGradient93747"
       gradientUnits="userSpaceOnUse"
       gradientTransform="matrix(-0.39460853,-1.2370077,4.9076852,-1.5655638,-209.30155,26.392347)"
       cx="-42.228165"
       cy="30.647808"
       fx="-42.228165"
       fy="30.647808"
       r="10.652055" />
    <radialGradient
       inkscape:collect="always"
       xlink:href="#linearGradient37650"
       id="radialGradient94617"
       gradientUnits="userSpaceOnUse"
       gradientTransform="matrix(-0.18996152,-1.0633459,2.3717634,-0.67184974,245.36819,298.90922)"
       cx="27.119791"
       cy="27.119791"
       fx="27.119791"
       fy="27.119791"
       r="26.590624" />
    <radialGradient
       inkscape:collect="always"
       xlink:href="#linearGradient66643-7"
       id="radialGradient94619"
       gradientUnits="userSpaceOnUse"
       gradientTransform="matrix(-0.70574682,-0.89834892,1.2749333,-1.5881851,288.99464,319.31219)"
       cx="27.119791"
       cy="27.119791"
       fx="27.119791"
       fy="27.119791"
       r="26.458332" />
    <radialGradient
       inkscape:collect="always"
       xlink:href="#linearGradient37650"
       id="radialGradient94621"
       gradientUnits="userSpaceOnUse"
       gradientTransform="matrix(-0.16129635,-0.98730672,2.4083381,-0.62387798,243.49156,295.57288)"
       cx="27.119791"
       cy="27.119791"
       fx="27.119791"
       fy="27.119791"
       r="20.042187" />
    <linearGradient
       inkscape:collect="always"
       xlink:href="#linearGradient55410"
       id="linearGradient94623"
       gradientUnits="userSpaceOnUse"
       gradientTransform="matrix(0.79456677,0,0,1.0005419,282.88238,224.74342)"
       x1="15.296131"
       y1="34.747093"
       x2="39.143559"
       y2="19.161978" />
    <radialGradient
       inkscape:collect="always"
       xlink:href="#linearGradient66643-7"
       id="radialGradient94625"
       gradientUnits="userSpaceOnUse"
       gradientTransform="matrix(-0.74286446,-1.5472624,1.3868395,-1.0557998,286.96639,322.47241)"
       cx="27.119789"
       cy="27.119793"
       fx="27.119789"
       fy="27.119793"
       r="18.573219" />
    <radialGradient
       inkscape:collect="always"
       xlink:href="#linearGradient37650"
       id="radialGradient94627"
       gradientUnits="userSpaceOnUse"
       gradientTransform="matrix(-0.36568328,-1.1826539,2.3088014,-1.1319932,251.72047,314.6072)"
       cx="27.083057"
       cy="27.119791"
       fx="27.083057"
       fy="27.119791"
       r="18.609953" />
    <linearGradient
       inkscape:collect="always"
       xlink:href="#linearGradient55410"
       id="linearGradient94629"
       gradientUnits="userSpaceOnUse"
       gradientTransform="matrix(0.79456677,0,0,1.0005419,282.88238,224.74342)"
       x1="39.471214"
       y1="21.942657"
       x2="16.23118"
       y2="33.866486" />
    <radialGradient
       inkscape:collect="always"
       xlink:href="#linearGradient66643-7"
       id="radialGradient94631"
       gradientUnits="userSpaceOnUse"
       gradientTransform="matrix(-0.39460853,-1.2370077,4.9076852,-1.5655638,-209.30155,26.392347)"
       cx="-42.228165"
       cy="30.647808"
       fx="-42.228165"
       fy="30.647808"
       r="10.652055" />
    <radialGradient
       inkscape:collect="always"
       xlink:href="#linearGradient66643-7"
       id="radialGradient94633"
       gradientUnits="userSpaceOnUse"
       gradientTransform="matrix(-0.39460853,-1.2370077,4.9076852,-1.5655638,-209.30155,26.392347)"
       cx="-42.228165"
       cy="30.647808"
       fx="-42.228165"
       fy="30.647808"
       r="10.652055" />
    <radialGradient
       inkscape:collect="always"
       xlink:href="#linearGradient66643-7"
       id="radialGradient94635"
       gradientUnits="userSpaceOnUse"
       gradientTransform="matrix(-0.39460853,-1.2370077,4.9076852,-1.5655638,-209.30155,26.392347)"
       cx="-42.228165"
       cy="30.647808"
       fx="-42.228165"
       fy="30.647808"
       r="10.652055" />
    <radialGradient
       inkscape:collect="always"
       xlink:href="#linearGradient111635"
       id="radialGradient111637"
       cx="28.09911"
       cy="27.111744"
       fx="28.09911"
       fy="27.111744"
       r="21.022911"
       gradientTransform="matrix(3.2716915,1.9254676,-2.202747,3.7428354,-4.1121936,-128.46697)"
       gradientUnits="userSpaceOnUse" />
    <linearGradient
       inkscape:collect="always"
       xlink:href="#linearGradient55410"
       id="linearGradient118718"
       x1="-19.608772"
       y1="41.287819"
       x2="42.231403"
       y2="14.52134"
       gradientUnits="userSpaceOnUse"
       gradientTransform="translate(282.76083,224.75811)" />
    <radialGradient
       inkscape:collect="always"
       xlink:href="#linearGradient117896"
       id="radialGradient120388"
       gradientUnits="userSpaceOnUse"
       gradientTransform="matrix(0.82619255,0.60463632,-0.60018994,0.82011688,306.94724,202.74104)"
       cx="45.101345"
       cy="27.237148"
       fx="45.101345"
       fy="27.237148"
       r="9.9550314" />
    <radialGradient
       inkscape:collect="always"
       xlink:href="#linearGradient117896"
       id="radialGradient120390"
       gradientUnits="userSpaceOnUse"
       gradientTransform="matrix(0.82619255,0.60463632,-0.60018994,0.82011688,306.94724,202.74104)"
       cx="45.101345"
       cy="27.237148"
       fx="45.101345"
       fy="27.237148"
       r="9.9550314" />
    <radialGradient
       inkscape:collect="always"
       xlink:href="#linearGradient117896"
       id="radialGradient120397"
       gradientUnits="userSpaceOnUse"
       gradientTransform="matrix(0.82619255,-0.60463632,-0.60018994,-0.82011688,306.94724,301.01635)"
       cx="45.101345"
       cy="27.237148"
       fx="45.101345"
       fy="27.237148"
       r="9.9550314" />
    <radialGradient
       inkscape:collect="always"
       xlink:href="#linearGradient111635"
       id="radialGradient120500"
       gradientUnits="userSpaceOnUse"
       gradientTransform="matrix(3.2716915,1.9254676,-2.202747,3.7428354,-4.1121936,-128.46697)"
       cx="28.09911"
       cy="27.111744"
       fx="28.09911"
       fy="27.111744"
       r="21.022911" />
    <radialGradient
       inkscape:collect="always"
       xlink:href="#linearGradient111635"
       id="radialGradient120502"
       gradientUnits="userSpaceOnUse"
       gradientTransform="matrix(3.2716915,1.9254676,-2.202747,3.7428354,-4.1121936,-128.46697)"
       cx="28.09911"
       cy="27.111744"
       fx="28.09911"
       fy="27.111744"
       r="21.022911" />
    <radialGradient
       inkscape:collect="always"
       xlink:href="#linearGradient111635"
       id="radialGradient120504"
       gradientUnits="userSpaceOnUse"
       gradientTransform="matrix(3.2716915,1.9254676,-2.202747,3.7428354,-4.1121936,-128.46697)"
       cx="28.09911"
       cy="27.111744"
       fx="28.09911"
       fy="27.111744"
       r="21.022911" />
    <radialGradient
       inkscape:collect="always"
       xlink:href="#linearGradient111635"
       id="radialGradient120506"
       gradientUnits="userSpaceOnUse"
       gradientTransform="matrix(3.2716915,1.9254676,-2.202747,3.7428354,-4.1121936,-128.46697)"
       cx="28.09911"
       cy="27.111744"
       fx="28.09911"
       fy="27.111744"
       r="21.022911" />
    <radialGradient
       inkscape:collect="always"
       xlink:href="#linearGradient111635"
       id="radialGradient120508"
       gradientUnits="userSpaceOnUse"
       gradientTransform="matrix(3.2716915,1.9254676,-2.202747,3.7428354,-4.1121936,-128.46697)"
       cx="28.09911"
       cy="27.111744"
       fx="28.09911"
       fy="27.111744"
       r="21.022911" />
    <radialGradient
       inkscape:collect="always"
       xlink:href="#linearGradient111635"
       id="radialGradient120510"
       gradientUnits="userSpaceOnUse"
       gradientTransform="matrix(3.2716915,1.9254676,-2.202747,3.7428354,-4.1121936,-128.46697)"
       cx="28.09911"
       cy="27.111744"
       fx="28.09911"
       fy="27.111744"
       r="21.022911" />
    <radialGradient
       inkscape:collect="always"
       xlink:href="#linearGradient111635"
       id="radialGradient120512"
       gradientUnits="userSpaceOnUse"
       gradientTransform="matrix(3.2716915,1.9254676,-2.202747,3.7428354,-4.1121936,-128.46697)"
       cx="28.09911"
       cy="27.111744"
       fx="28.09911"
       fy="27.111744"
       r="21.022911" />
  </defs>
  <g
     inkscape:label="Layer 1"
     inkscape:groupmode="layer"
     id="layer1">
    <g
       id="g90187"
       transform="translate(211.04242,-185.12352)">
      <path
         id="path11450"
         style="fill:url(#radialGradient22132);stroke:#dfd9d8;stroke-width:0.264583"
         d="M 273.75984,251.8779 A 26.458332,26.458332 0 0 1 247.3015,278.33623 26.458332,26.458332 0 0 1 220.84317,251.8779 26.458332,26.458332 0 0 1 247.3015,225.41957 26.458332,26.458332 0 0 1 273.75984,251.8779 Z" />
      <path
         id="path5052"
         style="fill:url(#radialGradient66645);fill-opacity:1;stroke:none;stroke-width:0.264583;stroke-miterlimit:4;stroke-dasharray:none;stroke-opacity:1"
         d="m 256.90557,227.3055 -9.60407,16.63516 -9.60406,-16.63464 a 26.458332,26.373703 0 0 0 -6.8864,3.94756 l 9.61595,16.65583 h -19.281 a 26.458332,26.373703 0 0 0 -0.30282,3.96875 26.458332,26.373703 0 0 0 0.30282,3.96875 h 19.28203 l -9.61647,16.65635 a 26.458332,26.373703 0 0 0 6.88589,3.94704 l 9.60406,-16.63464 9.60407,16.63464 a 26.458332,26.373703 0 0 0 6.8864,-3.94756 l -9.61647,-16.65583 h 19.28151 a 26.458332,26.373703 0 0 0 0.30283,-3.96875 26.458332,26.373703 0 0 0 -0.30231,-3.96875 h -19.28099 l 9.61543,-16.6548 a 26.458332,26.373703 0 0 0 -6.8864,-3.94911 z" />
      <path
         id="circle18657"
         style="fill:url(#radialGradient24042);stroke:url(#linearGradient20596);stroke-width:0.396875"
         d="M 267.14525,251.8779 A 19.84375,19.84375 0 0 1 247.3015,271.72165 19.84375,19.84375 0 0 1 227.45775,251.8779 19.84375,19.84375 0 0 1 247.3015,232.03415 19.84375,19.84375 0 0 1 267.14525,251.8779 Z" />
      <path
         id="circle61768"
         style="fill:none;stroke:url(#radialGradient85269);stroke-width:0.548709;stroke-dasharray:3.29225, 3.29225"
         d="m 265.60037,251.8779 a 18.335598,18.335598 0 0 1 -18.3356,18.3356 18.335598,18.335598 0 0 1 -18.3356,-18.3356 18.335598,18.335598 0 0 1 18.3356,-18.3356 18.335598,18.335598 0 0 1 18.3356,18.3356 z" />
      <path
         id="circle64967"
         style="fill:url(#radialGradient64993);stroke:url(#linearGradient65689);stroke-width:0.246856"
         d="M 263.71588,251.8779 A 16.414373,16.414373 0 0 1 247.3015,268.29227 16.414373,16.414373 0 0 1 230.88713,251.8779 16.414373,16.414373 0 0 1 247.3015,235.46353 16.414373,16.414373 0 0 1 263.71588,251.8779 Z" />
      <g
         id="g92809"
         transform="matrix(1.0395864,-0.12780947,0.12780947,1.0395864,287.52227,215.79455)"
         style="fill:url(#radialGradient92817);fill-opacity:1">
        <path
           id="circle85799"
           style="opacity:1;fill:url(#radialGradient93745);fill-opacity:1;stroke-width:0.314105"
           d="m -50.83933,23.418265 a 6.1363679,6.614583 45 0 0 -0.338001,9.016432 l 7.483547,7.483547 9.354433,-9.354434 -7.483546,-7.483547 a 6.1363679,6.614583 45 0 0 -9.016433,0.338002 z" />
        <path
           id="path92625"
           style="opacity:1;fill:url(#radialGradient93747);fill-opacity:1;stroke-width:0.314105"
           d="m -32.521208,25.829892 a 6.614583,6.1363679 60 0 0 -8.621723,-2.660109 l -9.165436,5.291667 6.614583,11.456794 9.165436,-5.291667 a 6.614583,6.1363679 60 0 0 2.00714,-8.796685 z" />
      </g>
      <path
         id="path1398"
         style="fill:#dfd9d8;stroke-width:0.314105"
         d="m 199.58083,199.18913 a 6.614583,6.614583 0 0 1 -6.61458,6.61459 6.614583,6.614583 0 0 1 -6.61458,-6.61459 6.614583,6.614583 0 0 1 6.61458,-6.61458 6.614583,6.614583 0 0 1 6.61458,6.61458 z" />
      <path
         id="circle1480"
         style="fill:#dec9ce;stroke-width:0.314105"
         d="m 226.66453,201.53539 a 6.614583,6.614583 0 0 1 -6.61459,6.61458 6.614583,6.614583 0 0 1 -6.61458,-6.61458 6.614583,6.614583 0 0 1 6.61458,-6.61459 6.614583,6.614583 0 0 1 6.61459,6.61459 z" />
      <path
         id="circle1482"
         style="fill:#da3842;stroke-width:0.314105"
         d="m 257.42228,201.68606 a 6.614583,6.614583 0 0 1 -6.61458,6.61458 6.614583,6.614583 0 0 1 -6.61459,-6.61458 6.614583,6.614583 0 0 1 6.61459,-6.61458 6.614583,6.614583 0 0 1 6.61458,6.61458 z" />
      <path
         id="circle1484"
         style="fill:#940213;stroke-width:0.314105"
         d="m 292.74796,201.14042 a 6.614583,6.614583 0 0 1 -6.61458,6.61458 6.614583,6.614583 0 0 1 -6.61459,-6.61458 6.614583,6.614583 0 0 1 6.61459,-6.61458 6.614583,6.614583 0 0 1 6.61458,6.61458 z" />
      <path
         id="circle1486"
         style="fill:#200b0d;stroke-width:0.314105"
         d="m 328.02824,200.86706 a 6.614583,6.614583 0 0 1 -6.61458,6.61459 6.614583,6.614583 0 0 1 -6.61458,-6.61459 6.614583,6.614583 0 0 1 6.61458,-6.61458 6.614583,6.614583 0 0 1 6.61458,6.61458 z" />
      <g
         id="g119134"
         style="fill:url(#radialGradient120506);fill-opacity:1"
         transform="translate(282.76083,224.75811)">
        <path
           id="ellipse119128"
           style="fill:url(#radialGradient120500);stroke-width:0.235945"
           d="M 49.122021,27.111744 A 21.022911,26.480717 0 0 1 28.09911,53.592461 21.022911,26.480717 0 0 1 7.0761986,27.111744 21.022911,26.480717 0 0 1 28.09911,0.63102722 21.022911,26.480717 0 0 1 49.122021,27.111744 Z" />
        <path
           style="fill:url(#radialGradient120502);fill-opacity:1;stroke:none;stroke-width:0.264583px;stroke-linecap:butt;stroke-linejoin:miter;stroke-opacity:1"
           d="m 21.673024,0.63151001 6.6355,-10e-9 -1.396351,2.9392921 z"
           id="path119130"
           sodipodi:nodetypes="cccc" />
        <path
           style="fill:url(#radialGradient120504);fill-opacity:1;stroke:none;stroke-width:0.264583px;stroke-linecap:butt;stroke-linejoin:miter;stroke-opacity:1"
           d="m 21.895849,53.558966 h 6.459523 l -0.07883,-2.46797 -6.380695,2.46797"
           id="path119132" />
      </g>
      <g
         id="g111629"
         style="fill:url(#radialGradient111637);fill-opacity:1"
         transform="translate(282.76083,224.75811)">
        <path
           id="ellipse94725"
           style="fill:url(#radialGradient120508);stroke-width:0.235945"
           d="M 49.122021,27.111744 A 21.022911,26.480717 0 0 1 28.09911,53.592461 21.022911,26.480717 0 0 1 7.0761986,27.111744 21.022911,26.480717 0 0 1 28.09911,0.63102722 21.022911,26.480717 0 0 1 49.122021,27.111744 Z" />
        <path
           style="fill:url(#radialGradient120510);fill-opacity:1;stroke:none;stroke-width:0.264583px;stroke-linecap:butt;stroke-linejoin:miter;stroke-opacity:1"
           d="m 21.673024,0.63151001 6.6355,-10e-9 -1.396351,2.9392921 z"
           id="path106212"
           sodipodi:nodetypes="cccc" />
        <path
           style="fill:url(#radialGradient120512);fill-opacity:1;stroke:none;stroke-width:0.264583px;stroke-linecap:butt;stroke-linejoin:miter;stroke-opacity:1"
           d="m 21.895849,53.558966 h 6.459523 l -0.07883,-2.46797 -6.380695,2.46797"
           id="path94921" />
      </g>
      <path
         id="circle94599"
         style="fill:url(#radialGradient94617);stroke:url(#linearGradient118718);stroke-width:0.235909"
         d="m 325.56111,251.85107 a 21.022911,26.47267 0 0 1 -21.02292,26.47267 21.022911,26.47267 0 0 1 -21.02291,-26.47267 21.022911,26.47267 0 0 1 21.02291,-26.47267 21.022911,26.47267 0 0 1 21.02292,26.47267 z" />
      <path
         style="fill:url(#radialGradient120388);fill-opacity:1;stroke:none;stroke-width:0.264583px;stroke-linecap:butt;stroke-linejoin:miter;stroke-opacity:1"
         d="m 325.21357,247.90726 h 6.42908 c 0.54055,2.62702 0.32353,5.75344 0.004,7.96058 l -6.43384,-0.0188 c 0.23241,-2.58278 0.30995,-5.58514 5.3e-4,-7.9418 z"
         id="path110611"
         sodipodi:nodetypes="ccccc" />
      <path
         style="fill:url(#radialGradient120390);fill-opacity:1;stroke:none;stroke-width:0.264583px;stroke-linecap:butt;stroke-linejoin:miter;stroke-opacity:1"
         d="m 317.53364,272.51392 6.47986,0.003 c -0.21676,0.43906 -3.32324,3.13541 -5.39369,3.95743 l -6.55788,-0.0104 c 1.73678,-0.91684 4.96051,-3.4081 5.47171,-3.9497 z"
         id="path110961"
         sodipodi:nodetypes="cccccc" />
      <path
         id="path94747"
         style="fill:url(#radialGradient94619);fill-opacity:1;stroke:none;stroke-width:0.235909;stroke-miterlimit:4;stroke-dasharray:none;stroke-opacity:1"
         d="m 312.06193,227.29219 -7.63107,16.64417 -7.63107,-16.64366 a 21.022911,26.387995 0 0 0 -5.4717,3.9497 l 7.64051,16.66486 h -15.32004 a 21.022911,26.387995 0 0 0 -0.24061,3.9709 21.022911,26.387995 0 0 0 0.24061,3.9709 h 15.32086 l -7.64092,16.66537 a 21.022911,26.387995 0 0 0 5.47129,3.94919 l 7.63107,-16.64366 7.63107,16.64366 a 21.022911,26.387995 0 0 0 5.47171,-3.9497 l -7.64093,-16.66486 h 15.32045 a 21.022911,26.387995 0 0 0 0.24061,-3.9709 21.022911,26.387995 0 0 0 -0.2402,-3.9709 h -15.32003 l 7.6401,-16.66382 a 21.022911,26.387995 0 0 0 -5.47171,-3.95125 z" />
      <path
         id="circle94603"
         style="fill:url(#radialGradient94621);stroke:url(#linearGradient94623);stroke-width:0.353864"
         d="m 320.19805,251.8779 a 15.767184,19.854504 0 0 1 -15.76719,19.8545 15.767184,19.854504 0 0 1 -15.76718,-19.8545 15.767184,19.854504 0 0 1 15.76718,-19.8545 15.767184,19.854504 0 0 1 15.76719,19.8545 z" />
      <path
         id="circle94605"
         style="fill:none;stroke:url(#radialGradient94625);stroke-width:0.489243;stroke-dasharray:2.93546, 2.93546"
         d="m 318.97053,251.8779 a 14.568857,18.345533 0 0 1 -14.56885,18.34553 14.568857,18.345533 0 0 1 -14.56886,-18.34553 14.568857,18.345533 0 0 1 14.56886,-18.34553 14.568857,18.345533 0 0 1 14.56885,18.34553 z" />
      <path
         id="circle94607"
         style="fill:url(#radialGradient94627);stroke:url(#linearGradient94629);stroke-width:0.220103"
         d="m 317.47318,251.8779 a 13.042315,16.423269 0 0 1 -13.04232,16.42327 13.042315,16.423269 0 0 1 -13.04231,-16.42327 13.042315,16.423269 0 0 1 13.04231,-16.42327 13.042315,16.423269 0 0 1 13.04232,16.42327 z" />
      <g
         id="g94613"
         transform="matrix(0.82602081,-0.12787873,0.10155316,1.0401498,336.38895,215.77499)"
         style="fill:url(#radialGradient94635);fill-opacity:1">
        <path
           id="path94609"
           style="opacity:1;fill:url(#radialGradient94631);fill-opacity:1;stroke-width:0.314105"
           d="m -50.83933,23.418265 a 6.1363679,6.614583 45 0 0 -0.338001,9.016432 l 7.483547,7.483547 9.354433,-9.354434 -7.483546,-7.483547 a 6.1363679,6.614583 45 0 0 -9.016433,0.338002 z" />
        <path
           id="path94611"
           style="opacity:1;fill:url(#radialGradient94633);fill-opacity:1;stroke-width:0.314105"
           d="m -32.521208,25.829892 a 6.614583,6.1363679 60 0 0 -8.621723,-2.660109 l -9.165436,5.291667 6.614583,11.456794 9.165436,-5.291667 a 6.614583,6.1363679 60 0 0 2.00714,-8.796685 z" />
      </g>
      <path
         style="fill:url(#radialGradient120397);fill-opacity:1;stroke:none;stroke-width:0.264583px;stroke-linecap:butt;stroke-linejoin:miter;stroke-opacity:1"
         d="m 317.53364,231.24347 6.47986,-0.003 c -0.21676,-0.43906 -3.32324,-3.13541 -5.39369,-3.95743 l -6.55788,0.0104 c 1.73678,0.91684 4.96051,3.4081 5.47171,3.9497 z"
         id="path120395"
         sodipodi:nodetypes="cccccc" />
      <path
         d="m 186.39822,192.57455 v -1.5113 h 0.1905 v 1.34197 h 0.6604 v 0.16933 z"
         id="path17992"
         style="font-size:2.11667px;line-height:1.25;stroke-width:0.264583" />
      <path
         d="m 187.57721,191.01457 q 0.0423,0 0.0741,0.0296 0.0339,0.0275 0.0339,0.0889 0,0.0593 -0.0339,0.0889 -0.0317,0.0296 -0.0741,0.0296 -0.0466,0 -0.0783,-0.0296 -0.0317,-0.0296 -0.0317,-0.0889 0,-0.0614 0.0317,-0.0889 0.0318,-0.0296 0.0783,-0.0296 z m 0.091,0.42545 v 1.13453 h -0.18627 v -1.13453 z"
         id="path17994"
         style="font-size:2.11667px;line-height:1.25;stroke-width:0.264583" />
      <path
         d="m 188.43022,191.41885 q 0.11219,0 0.20109,0.0423 0.091,0.0423 0.15451,0.12912 h 0.0106 l 0.0254,-0.15029 h 0.14817 v 1.15359 q 0,0.24341 -0.12488,0.36618 -0.12277,0.12277 -0.38312,0.12277 -0.24977,0 -0.40852,-0.072 v -0.17145 q 0.16722,0.0889 0.4191,0.0889 0.14605,0 0.2286,-0.0868 0.0847,-0.0847 0.0847,-0.23283 v -0.0444 q 0,-0.0254 0.002,-0.072 0.002,-0.0487 0.004,-0.0677 h -0.008 q -0.1143,0.17145 -0.35136,0.17145 -0.22014,0 -0.34502,-0.15452 -0.12277,-0.15452 -0.12277,-0.4318 0,-0.27093 0.12277,-0.42968 0.12488,-0.16087 0.3429,-0.16087 z m 0.0254,0.15663 q -0.14181,0 -0.22013,0.1143 -0.0783,0.11219 -0.0783,0.32174 0,0.20955 0.0762,0.32173 0.0783,0.11007 0.22648,0.11007 0.17145,0 0.24977,-0.091 0.0783,-0.0931 0.0783,-0.29845 v -0.0445 q 0,-0.23284 -0.0804,-0.33232 -0.0804,-0.1016 -0.25188,-0.1016 z"
         id="path17996"
         style="font-size:2.11667px;line-height:1.25;stroke-width:0.264583" />
      <path
         d="m 189.51608,191.4379 q 0,0.0847 -0.0106,0.15875 h 0.0127 q 0.055,-0.0868 0.14816,-0.13123 0.0952,-0.0444 0.20532,-0.0444 0.20743,0 0.31115,0.0995 0.10372,0.0974 0.10372,0.31538 v 0.73872 h -0.18415 v -0.72602 q 0,-0.27305 -0.254,-0.27305 -0.1905,0 -0.26247,0.10795 -0.0699,0.10583 -0.0699,0.3048 v 0.58632 h -0.18627 v -1.60867 h 0.18627 z"
         id="path17998"
         style="font-size:2.11667px;line-height:1.25;stroke-width:0.264583" />
      <path
         d="m 191.01679,192.44332 q 0.0423,0 0.0868,-0.006 0.0445,-0.008 0.072,-0.0169 v 0.14182 q -0.0296,0.0148 -0.0847,0.0233 -0.055,0.0106 -0.10583,0.0106 -0.0889,0 -0.1651,-0.0296 -0.0741,-0.0317 -0.12065,-0.10794 -0.0466,-0.0762 -0.0466,-0.21379 v -0.6604 h -0.16087 v -0.0889 l 0.16299,-0.0741 0.0741,-0.2413 h 0.11006 v 0.26035 h 0.32809 v 0.14393 h -0.32809 v 0.65617 q 0,0.10372 0.0487,0.15452 0.0508,0.0487 0.12912,0.0487 z"
         id="path18000"
         style="font-size:2.11667px;line-height:1.25;stroke-width:0.264583" />
      <path
         d="m 192.69108,192.26129 q 0,0.16509 -0.12277,0.24976 -0.12276,0.0847 -0.3302,0.0847 -0.11853,0 -0.20531,-0.019 -0.0847,-0.0191 -0.15029,-0.0529 v -0.16933 q 0.0677,0.0339 0.16299,0.0635 0.0974,0.0275 0.19685,0.0275 0.14181,0 0.20531,-0.0444 0.0635,-0.0466 0.0635,-0.12277 0,-0.0423 -0.0233,-0.0762 -0.0233,-0.0339 -0.0847,-0.0677 -0.0593,-0.0339 -0.17145,-0.0762 -0.11006,-0.0423 -0.18838,-0.0847 -0.0783,-0.0423 -0.12065,-0.1016 -0.0423,-0.0593 -0.0423,-0.1524 0,-0.14393 0.11642,-0.22225 0.11853,-0.0783 0.30903,-0.0783 0.10372,0 0.19262,0.0212 0.091,0.019 0.16933,0.055 l -0.0635,0.14817 q -0.072,-0.0296 -0.15028,-0.0508 -0.0783,-0.0212 -0.16087,-0.0212 -0.1143,0 -0.17568,0.0381 -0.0593,0.036 -0.0593,0.0995 0,0.0466 0.0275,0.0804 0.0275,0.0317 0.091,0.0635 0.0656,0.0296 0.17356,0.072 0.10795,0.0402 0.18415,0.0825 0.0762,0.0423 0.11642,0.10371 0.0402,0.0593 0.0402,0.15029 z"
         id="path18002"
         style="font-size:2.11667px;line-height:1.25;stroke-width:0.264583" />
      <path
         d="m 193.15251,191.4379 q 0,0.0847 -0.0106,0.15875 h 0.0127 q 0.055,-0.0868 0.14817,-0.13123 0.0953,-0.0444 0.20532,-0.0444 0.20743,0 0.31115,0.0995 0.10372,0.0974 0.10372,0.31538 v 0.73872 h -0.18415 v -0.72602 q 0,-0.27305 -0.254,-0.27305 -0.19051,0 -0.26247,0.10795 -0.0699,0.10583 -0.0699,0.3048 v 0.58632 h -0.18627 v -1.60867 h 0.18627 z"
         id="path18004"
         style="font-size:2.11667px;line-height:1.25;stroke-width:0.264583" />
      <path
         d="m 194.70403,191.42097 q 0.20744,0 0.30692,0.091 0.0995,0.091 0.0995,0.28998 v 0.77258 h -0.13547 l -0.036,-0.16086 h -0.008 q -0.0741,0.0931 -0.15663,0.13758 -0.0804,0.0445 -0.22437,0.0445 -0.15451,0 -0.25611,-0.0804 -0.1016,-0.0825 -0.1016,-0.25612 0,-0.16933 0.13335,-0.26035 0.13335,-0.0931 0.41063,-0.1016 l 0.19262,-0.006 v -0.0677 q 0,-0.14181 -0.0614,-0.19685 -0.0614,-0.055 -0.17357,-0.055 -0.0889,0 -0.16933,0.0275 -0.0804,0.0254 -0.15029,0.0593 l -0.0571,-0.1397 q 0.0741,-0.0402 0.17569,-0.0677 0.1016,-0.0296 0.21167,-0.0296 z m 0.055,0.60536 q -0.21166,0.008 -0.29421,0.0677 -0.0804,0.0593 -0.0804,0.16722 0,0.0952 0.0572,0.1397 0.0593,0.0444 0.15028,0.0444 0.14393,0 0.23918,-0.0783 0.0952,-0.0804 0.0952,-0.24553 v -0.1016 z"
         id="path18006"
         style="font-size:2.11667px;line-height:1.25;stroke-width:0.264583" />
      <path
         d="m 195.86397,192.59572 q -0.21167,0 -0.33867,-0.14605 -0.127,-0.14817 -0.127,-0.44027 0,-0.2921 0.127,-0.44027 0.12912,-0.15028 0.34079,-0.15028 0.13123,0 0.21378,0.0487 0.0847,0.0487 0.13758,0.11853 h 0.0127 q -0.002,-0.0275 -0.008,-0.0804 -0.004,-0.055 -0.004,-0.0868 v -0.45296 h 0.18627 v 1.60867 h -0.15028 l -0.0275,-0.1524 h -0.008 q -0.0508,0.072 -0.13547,0.12276 -0.0847,0.0508 -0.21802,0.0508 z m 0.0296,-0.15452 q 0.17992,0 0.25188,-0.0974 0.0741,-0.0995 0.0741,-0.29845 v -0.0339 q 0,-0.21167 -0.0699,-0.32385 -0.0699,-0.1143 -0.25823,-0.1143 -0.15028,0 -0.22648,0.12065 -0.0741,0.11853 -0.0741,0.31962 0,0.2032 0.0741,0.31538 0.0762,0.11219 0.2286,0.11219 z"
         id="path18008"
         style="font-size:2.11667px;line-height:1.25;stroke-width:0.264583" />
      <path
         d="m 197.20171,191.41885 q 0.14605,0 0.24976,0.0635 0.10584,0.0635 0.16087,0.17992 0.0572,0.1143 0.0572,0.26881 v 0.11219 h -0.77682 q 0.004,0.19261 0.0974,0.29422 0.0952,0.0995 0.26458,0.0995 0.10796,0 0.19051,-0.019 0.0847,-0.0212 0.17356,-0.0593 v 0.16298 q -0.0868,0.0381 -0.17145,0.055 -0.0847,0.019 -0.20108,0.019 -0.16087,0 -0.28575,-0.0656 -0.12277,-0.0656 -0.19262,-0.19474 -0.0677,-0.13123 -0.0677,-0.31961 0,-0.18627 0.0614,-0.31962 0.0635,-0.13335 0.17568,-0.20532 0.1143,-0.072 0.26459,-0.072 z m -0.002,0.1524 q -0.13335,0 -0.21167,0.0868 -0.0762,0.0847 -0.091,0.23707 h 0.57785 q -0.002,-0.14394 -0.0677,-0.23284 -0.0656,-0.091 -0.20743,-0.091 z"
         id="path18010"
         style="font-size:2.11667px;line-height:1.25;stroke-width:0.264583" />
      <path
         d="m 198.69607,192.26129 q 0,0.16509 -0.12276,0.24976 -0.12277,0.0847 -0.3302,0.0847 -0.11854,0 -0.20532,-0.019 -0.0847,-0.0191 -0.15028,-0.0529 v -0.16933 q 0.0677,0.0339 0.16298,0.0635 0.0974,0.0275 0.19685,0.0275 0.14182,0 0.20532,-0.0444 0.0635,-0.0466 0.0635,-0.12277 0,-0.0423 -0.0233,-0.0762 -0.0233,-0.0339 -0.0847,-0.0677 -0.0593,-0.0339 -0.17145,-0.0762 -0.11007,-0.0423 -0.18839,-0.0847 -0.0783,-0.0423 -0.12065,-0.1016 -0.0423,-0.0593 -0.0423,-0.1524 0,-0.14393 0.11642,-0.22225 0.11853,-0.0783 0.30903,-0.0783 0.10372,0 0.19262,0.0212 0.091,0.019 0.16933,0.055 l -0.0635,0.14817 q -0.072,-0.0296 -0.15028,-0.0508 -0.0783,-0.0212 -0.16087,-0.0212 -0.1143,0 -0.17568,0.0381 -0.0593,0.036 -0.0593,0.0995 0,0.0466 0.0275,0.0804 0.0275,0.0317 0.091,0.0635 0.0656,0.0296 0.17357,0.072 0.10795,0.0402 0.18415,0.0825 0.0762,0.0423 0.11641,0.10371 0.0402,0.0593 0.0402,0.15029 z"
         id="path18012"
         style="font-size:2.11667px;line-height:1.25;stroke-width:0.264583" />
      <path
         d="m 214.37797,193.06566 v -1.5113 h 0.1905 v 1.34197 h 0.6604 v 0.16933 z"
         id="path18015"
         style="font-size:2.11667px;line-height:1.25;stroke-width:0.264583" />
      <path
         d="m 215.55696,191.50567 q 0.0423,0 0.0741,0.0296 0.0339,0.0275 0.0339,0.0889 0,0.0593 -0.0339,0.0889 -0.0318,0.0296 -0.0741,0.0296 -0.0466,0 -0.0783,-0.0296 -0.0318,-0.0296 -0.0318,-0.0889 0,-0.0614 0.0318,-0.0889 0.0317,-0.0296 0.0783,-0.0296 z m 0.091,0.42545 v 1.13454 h -0.18626 v -1.13454 z"
         id="path18017"
         style="font-size:2.11667px;line-height:1.25;stroke-width:0.264583" />
      <path
         d="m 216.40997,191.90996 q 0.11219,0 0.20109,0.0423 0.091,0.0423 0.15451,0.12912 h 0.0106 l 0.0254,-0.15029 h 0.14816 v 1.15359 q 0,0.24341 -0.12488,0.36618 -0.12277,0.12277 -0.38312,0.12277 -0.24976,0 -0.40851,-0.072 v -0.17145 q 0.16721,0.0889 0.4191,0.0889 0.14605,0 0.2286,-0.0868 0.0847,-0.0847 0.0847,-0.23283 v -0.0444 q 0,-0.0254 0.002,-0.072 0.002,-0.0487 0.004,-0.0677 h -0.008 q -0.1143,0.17145 -0.35136,0.17145 -0.22014,0 -0.34502,-0.15452 -0.12277,-0.15452 -0.12277,-0.4318 0,-0.27094 0.12277,-0.42969 0.12488,-0.16086 0.3429,-0.16086 z m 0.0254,0.15663 q -0.14181,0 -0.22013,0.1143 -0.0783,0.11219 -0.0783,0.32174 0,0.20955 0.0762,0.32173 0.0783,0.11007 0.22649,0.11007 0.17145,0 0.24976,-0.091 0.0783,-0.0931 0.0783,-0.29845 v -0.0445 q 0,-0.23284 -0.0804,-0.33232 -0.0804,-0.1016 -0.25189,-0.1016 z"
         id="path18019"
         style="font-size:2.11667px;line-height:1.25;stroke-width:0.264583" />
      <path
         d="m 217.49583,191.92901 q 0,0.0847 -0.0106,0.15875 h 0.0127 q 0.055,-0.0868 0.14817,-0.13124 0.0952,-0.0444 0.20532,-0.0444 0.20743,0 0.31115,0.0995 0.10371,0.0974 0.10371,0.31538 v 0.73872 h -0.18415 v -0.72602 q 0,-0.27305 -0.254,-0.27305 -0.1905,0 -0.26246,0.10795 -0.0698,0.10583 -0.0698,0.3048 v 0.58632 h -0.18627 v -1.60867 h 0.18627 z"
         id="path18021"
         style="font-size:2.11667px;line-height:1.25;stroke-width:0.264583" />
      <path
         d="m 218.99654,192.93443 q 0.0423,0 0.0868,-0.006 0.0445,-0.008 0.072,-0.0169 v 0.14181 q -0.0296,0.0148 -0.0847,0.0233 -0.055,0.0106 -0.10584,0.0106 -0.0889,0 -0.1651,-0.0296 -0.0741,-0.0318 -0.12065,-0.10795 -0.0466,-0.0762 -0.0466,-0.21378 v -0.6604 h -0.16087 v -0.0889 l 0.16298,-0.0741 0.0741,-0.2413 h 0.11006 v 0.26035 h 0.32809 v 0.14393 h -0.32809 v 0.65617 q 0,0.10372 0.0487,0.15452 0.0508,0.0487 0.12911,0.0487 z"
         id="path18023"
         style="font-size:2.11667px;line-height:1.25;stroke-width:0.264583" />
      <path
         d="m 220.3618,191.91208 q 0.20743,0 0.30691,0.091 0.0995,0.091 0.0995,0.28998 v 0.77258 h -0.13547 l -0.036,-0.16086 h -0.008 q -0.0741,0.0931 -0.15663,0.13758 -0.0804,0.0444 -0.22437,0.0444 -0.15452,0 -0.25612,-0.0804 -0.1016,-0.0826 -0.1016,-0.25612 0,-0.16933 0.13335,-0.26035 0.13335,-0.0931 0.41064,-0.1016 l 0.19261,-0.006 v -0.0677 q 0,-0.14182 -0.0614,-0.19685 -0.0614,-0.055 -0.17357,-0.055 -0.0889,0 -0.16933,0.0275 -0.0804,0.0254 -0.15028,0.0593 l -0.0572,-0.1397 q 0.0741,-0.0402 0.17568,-0.0677 0.1016,-0.0296 0.21167,-0.0296 z m 0.055,0.60536 q -0.21167,0.008 -0.29422,0.0677 -0.0804,0.0593 -0.0804,0.16722 0,0.0953 0.0572,0.1397 0.0593,0.0445 0.15028,0.0445 0.14394,0 0.23919,-0.0783 0.0952,-0.0804 0.0952,-0.24554 v -0.1016 z"
         id="path18025"
         style="font-size:2.11667px;line-height:1.25;stroke-width:0.264583" />
      <path
         d="m 221.57465,193.08683 q -0.15028,0 -0.26882,-0.0614 -0.11641,-0.0614 -0.18415,-0.1905 -0.0656,-0.12912 -0.0656,-0.3302 0,-0.20955 0.0699,-0.34079 0.0699,-0.13123 0.18838,-0.19261 0.12065,-0.0614 0.27305,-0.0614 0.0868,0 0.16722,0.0191 0.0804,0.0169 0.13123,0.0423 l -0.0571,0.15451 q -0.0508,-0.019 -0.11853,-0.036 -0.0677,-0.0169 -0.127,-0.0169 -0.33444,0 -0.33444,0.42969 0,0.20531 0.0804,0.31538 0.0825,0.10795 0.24341,0.10795 0.0931,0 0.16299,-0.019 0.072,-0.0191 0.13123,-0.0466 v 0.1651 q -0.0572,0.0296 -0.127,0.0444 -0.0677,0.0169 -0.1651,0.0169 z"
         id="path18027"
         style="font-size:2.11667px;line-height:1.25;stroke-width:0.264583" />
      <path
         d="m 222.59065,193.08683 q -0.15028,0 -0.26882,-0.0614 -0.11641,-0.0614 -0.18415,-0.1905 -0.0656,-0.12912 -0.0656,-0.3302 0,-0.20955 0.0699,-0.34079 0.0699,-0.13123 0.18838,-0.19261 0.12065,-0.0614 0.27305,-0.0614 0.0868,0 0.16722,0.0191 0.0804,0.0169 0.13123,0.0423 l -0.0572,0.15451 q -0.0508,-0.019 -0.11853,-0.036 -0.0677,-0.0169 -0.127,-0.0169 -0.33444,0 -0.33444,0.42969 0,0.20531 0.0804,0.31538 0.0825,0.10795 0.24341,0.10795 0.0931,0 0.16299,-0.019 0.072,-0.0191 0.13123,-0.0466 v 0.1651 q -0.0571,0.0296 -0.127,0.0444 -0.0677,0.0169 -0.1651,0.0169 z"
         id="path18029"
         style="font-size:2.11667px;line-height:1.25;stroke-width:0.264583" />
      <path
         d="m 223.58972,191.90996 q 0.14605,0 0.24977,0.0635 0.10583,0.0635 0.16086,0.17991 0.0572,0.11431 0.0572,0.26882 v 0.11219 h -0.77682 q 0.004,0.19261 0.0974,0.29421 0.0952,0.0995 0.26459,0.0995 0.10795,0 0.1905,-0.019 0.0847,-0.0212 0.17356,-0.0593 v 0.16299 q -0.0868,0.0381 -0.17145,0.055 -0.0847,0.019 -0.20108,0.019 -0.16087,0 -0.28575,-0.0656 -0.12277,-0.0656 -0.19262,-0.19474 -0.0677,-0.13123 -0.0677,-0.31961 0,-0.18627 0.0614,-0.31962 0.0635,-0.13335 0.17569,-0.20532 0.1143,-0.072 0.26458,-0.072 z m -0.002,0.1524 q -0.13335,0 -0.21167,0.0868 -0.0762,0.0847 -0.091,0.23707 h 0.57786 q -0.002,-0.14394 -0.0677,-0.23284 -0.0656,-0.091 -0.20744,-0.091 z"
         id="path18031"
         style="font-size:2.11667px;line-height:1.25;stroke-width:0.264583" />
      <path
         d="m 224.89147,191.90996 q 0.2032,0 0.30692,0.0995 0.10371,0.0974 0.10371,0.3175 v 0.73872 h -0.18415 v -0.72602 q 0,-0.27305 -0.254,-0.27305 -0.18838,0 -0.26035,0.10583 -0.072,0.10583 -0.072,0.3048 v 0.58844 h -0.18626 v -1.13454 h 0.15028 l 0.0275,0.15452 h 0.0106 q 0.055,-0.0889 0.1524,-0.13124 0.0974,-0.0444 0.20532,-0.0444 z"
         id="path18033"
         style="font-size:2.11667px;line-height:1.25;stroke-width:0.264583" />
      <path
         d="m 226.03235,192.93443 q 0.0423,0 0.0868,-0.006 0.0445,-0.008 0.072,-0.0169 v 0.14181 q -0.0296,0.0148 -0.0847,0.0233 -0.055,0.0106 -0.10584,0.0106 -0.0889,0 -0.1651,-0.0296 -0.0741,-0.0318 -0.12065,-0.10795 -0.0466,-0.0762 -0.0466,-0.21378 v -0.6604 h -0.16087 v -0.0889 l 0.16298,-0.0741 0.0741,-0.2413 h 0.11006 v 0.26035 h 0.32809 v 0.14393 h -0.32809 v 0.65617 q 0,0.10372 0.0487,0.15452 0.0508,0.0487 0.12911,0.0487 z"
         id="path18035"
         style="font-size:2.11667px;line-height:1.25;stroke-width:0.264583" />
      <path
         d="m 246.16763,192.68797 -0.49742,-1.32503 h -0.008 q 0.006,0.0656 0.0106,0.1778 0.004,0.11007 0.004,0.23072 v 0.91651 h -0.17561 v -1.5113 h 0.28152 l 0.46566,1.23825 h 0.008 l 0.47414,-1.23825 h 0.2794 v 1.5113 h -0.18839 v -0.92921 q 0,-0.11007 0.004,-0.21802 0.006,-0.10795 0.0106,-0.17568 h -0.008 l -0.50376,1.32291 z"
         id="path18038"
         style="font-size:2.11667px;line-height:1.25;stroke-width:0.264583" />
      <path
         d="m 247.82498,191.53439 q 0.20744,0 0.30692,0.091 0.0995,0.091 0.0995,0.28998 v 0.77259 h -0.13547 l -0.036,-0.16087 h -0.008 q -0.0741,0.0931 -0.15663,0.13758 -0.0804,0.0444 -0.22437,0.0444 -0.15452,0 -0.25612,-0.0804 -0.1016,-0.0826 -0.1016,-0.25611 0,-0.16934 0.13335,-0.26035 0.13335,-0.0931 0.41064,-0.1016 l 0.19261,-0.006 v -0.0677 q 0,-0.14182 -0.0614,-0.19685 -0.0614,-0.055 -0.17356,-0.055 -0.0889,0 -0.16934,0.0275 -0.0804,0.0254 -0.15028,0.0593 l -0.0572,-0.1397 q 0.0741,-0.0402 0.17568,-0.0677 0.1016,-0.0296 0.21167,-0.0296 z m 0.055,0.60537 q -0.21167,0.008 -0.29422,0.0677 -0.0804,0.0593 -0.0804,0.16721 0,0.0953 0.0572,0.1397 0.0593,0.0445 0.15029,0.0445 0.14393,0 0.23918,-0.0783 0.0953,-0.0804 0.0953,-0.24553 v -0.1016 z"
         id="path18040"
         style="font-size:2.11667px;line-height:1.25;stroke-width:0.264583" />
      <path
         d="m 248.678,191.12799 q 0.0423,0 0.0741,0.0296 0.0339,0.0275 0.0339,0.0889 0,0.0593 -0.0339,0.0889 -0.0318,0.0296 -0.0741,0.0296 -0.0466,0 -0.0783,-0.0296 -0.0318,-0.0296 -0.0318,-0.0889 0,-0.0614 0.0318,-0.0889 0.0317,-0.0296 0.0783,-0.0296 z m 0.091,0.42545 v 1.13453 h -0.18627 v -1.13453 z"
         id="path18042"
         style="font-size:2.11667px;line-height:1.25;stroke-width:0.264583" />
      <path
         d="m 249.67495,191.53227 q 0.2032,0 0.30692,0.0995 0.10372,0.0974 0.10372,0.3175 v 0.73872 h -0.18415 v -0.72602 q 0,-0.27305 -0.254,-0.27305 -0.18839,0 -0.26036,0.10584 -0.072,0.10583 -0.072,0.3048 v 0.58843 h -0.18626 v -1.13453 h 0.15028 l 0.0275,0.15451 h 0.0106 q 0.055,-0.0889 0.1524,-0.13123 0.0974,-0.0444 0.20532,-0.0444 z"
         id="path18044"
         style="font-size:2.11667px;line-height:1.25;stroke-width:0.264583" />
      <path
         d="m 251.44237,192.70914 q -0.15028,0 -0.26882,-0.0614 -0.11641,-0.0614 -0.18415,-0.1905 -0.0656,-0.12912 -0.0656,-0.3302 0,-0.20955 0.0699,-0.34078 0.0699,-0.13124 0.18839,-0.19262 0.12065,-0.0614 0.27305,-0.0614 0.0868,0 0.16722,0.0191 0.0804,0.0169 0.13123,0.0423 l -0.0572,0.15452 q -0.0508,-0.019 -0.11853,-0.036 -0.0677,-0.0169 -0.127,-0.0169 -0.33444,0 -0.33444,0.42968 0,0.20532 0.0804,0.31538 0.0825,0.10795 0.24342,0.10795 0.0931,0 0.16298,-0.019 0.072,-0.0191 0.13124,-0.0466 v 0.16511 q -0.0571,0.0296 -0.127,0.0444 -0.0677,0.0169 -0.1651,0.0169 z"
         id="path18046"
         style="font-size:2.11667px;line-height:1.25;stroke-width:0.264583" />
      <path
         d="m 252.98966,192.11859 q 0,0.28152 -0.14394,0.43603 -0.14181,0.15452 -0.38523,0.15452 -0.15028,0 -0.26882,-0.0677 -0.11641,-0.0699 -0.18415,-0.20108 -0.0677,-0.13335 -0.0677,-0.32174 0,-0.28151 0.14182,-0.43391 0.14181,-0.1524 0.38523,-0.1524 0.15452,0 0.27094,0.0699 0.11853,0.0677 0.18415,0.19896 0.0677,0.12912 0.0677,0.3175 z m -0.85725,0 q 0,0.20108 0.0783,0.31962 0.0804,0.11641 0.254,0.11641 0.17145,0 0.25188,-0.11641 0.0804,-0.11854 0.0804,-0.31962 0,-0.20108 -0.0804,-0.31538 -0.0804,-0.1143 -0.254,-0.1143 -0.17357,0 -0.25188,0.1143 -0.0783,0.1143 -0.0783,0.31538 z"
         id="path18048"
         style="font-size:2.11667px;line-height:1.25;stroke-width:0.264583" />
      <path
         d="m 253.47014,192.68797 h -0.18627 v -1.60867 h 0.18627 z"
         id="path18050"
         style="font-size:2.11667px;line-height:1.25;stroke-width:0.264583" />
      <path
         d="m 254.81634,192.11859 q 0,0.28152 -0.14393,0.43603 -0.14182,0.15452 -0.38524,0.15452 -0.15028,0 -0.26881,-0.0677 -0.11642,-0.0699 -0.18415,-0.20108 -0.0677,-0.13335 -0.0677,-0.32174 0,-0.28151 0.14181,-0.43391 0.14182,-0.1524 0.38524,-0.1524 0.15451,0 0.27093,0.0699 0.11853,0.0677 0.18415,0.19896 0.0677,0.12912 0.0677,0.3175 z m -0.85725,0 q 0,0.20108 0.0783,0.31962 0.0804,0.11641 0.254,0.11641 0.17145,0 0.25188,-0.11641 0.0804,-0.11854 0.0804,-0.31962 0,-0.20108 -0.0804,-0.31538 -0.0804,-0.1143 -0.254,-0.1143 -0.17356,0 -0.25188,0.1143 -0.0783,0.1143 -0.0783,0.31538 z"
         id="path18052"
         style="font-size:2.11667px;line-height:1.25;stroke-width:0.264583" />
      <path
         d="m 255.63972,191.53227 q 0.0317,0 0.0677,0.004 0.0381,0.002 0.0656,0.008 l -0.0233,0.17145 q -0.0275,-0.006 -0.0614,-0.0106 -0.0318,-0.004 -0.0614,-0.004 -0.0868,0 -0.16298,0.0487 -0.0762,0.0466 -0.12277,0.13335 -0.0445,0.0847 -0.0445,0.19897 v 0.60537 h -0.18626 v -1.13454 h 0.1524 l 0.0212,0.20744 h 0.008 q 0.055,-0.0931 0.14181,-0.16087 0.0868,-0.0677 0.20532,-0.0677 z"
         id="path18054"
         style="font-size:2.11667px;line-height:1.25;stroke-width:0.264583" />
      <path
         d="m 280.89151,192.71902 q 0,0.38311 -0.20955,0.57785 -0.20743,0.19261 -0.57997,0.19261 h -0.42121 v -1.5113 h 0.46566 q 0.2286,0 0.39582,0.0847 0.16722,0.0847 0.25823,0.24977 0.091,0.16298 0.091,0.4064 z m -0.20108,0.006 q 0,-0.30269 -0.15029,-0.44239 -0.14816,-0.14181 -0.42121,-0.14181 h -0.24765 v 1.18533 h 0.20531 q 0.61384,0 0.61384,-0.60113 z"
         id="path18057"
         style="font-size:2.11667px;line-height:1.25;stroke-width:0.264583" />
      <path
         d="m 281.63023,192.3359 q 0.20743,0 0.30692,0.091 0.0995,0.091 0.0995,0.28998 v 0.77259 h -0.13547 l -0.036,-0.16087 h -0.009 q -0.0741,0.0931 -0.15664,0.13758 -0.0804,0.0445 -0.22436,0.0445 -0.15452,0 -0.25612,-0.0804 -0.1016,-0.0825 -0.1016,-0.25611 0,-0.16934 0.13335,-0.26035 0.13335,-0.0931 0.41063,-0.1016 l 0.19262,-0.006 v -0.0677 q 0,-0.14182 -0.0614,-0.19685 -0.0614,-0.055 -0.17357,-0.055 -0.0889,0 -0.16933,0.0275 -0.0804,0.0254 -0.15028,0.0593 l -0.0572,-0.1397 q 0.0741,-0.0402 0.17568,-0.0677 0.1016,-0.0296 0.21167,-0.0296 z m 0.055,0.60537 q -0.21167,0.008 -0.29422,0.0677 -0.0804,0.0593 -0.0804,0.16721 0,0.0952 0.0571,0.1397 0.0593,0.0444 0.15028,0.0444 0.14394,0 0.23919,-0.0783 0.0953,-0.0804 0.0953,-0.24553 v -0.1016 z"
         id="path18059"
         style="font-size:2.11667px;line-height:1.25;stroke-width:0.264583" />
      <path
         d="m 282.91717,192.33378 q 0.0317,0 0.0677,0.004 0.0381,0.002 0.0656,0.009 l -0.0233,0.17145 q -0.0275,-0.006 -0.0614,-0.0106 -0.0318,-0.004 -0.0614,-0.004 -0.0868,0 -0.16299,0.0487 -0.0762,0.0466 -0.12276,0.13335 -0.0445,0.0847 -0.0445,0.19897 v 0.60537 h -0.18627 v -1.13454 h 0.1524 l 0.0212,0.20744 h 0.009 q 0.055,-0.0931 0.14182,-0.16087 0.0868,-0.0677 0.20531,-0.0677 z"
         id="path18061"
         style="font-size:2.11667px;line-height:1.25;stroke-width:0.264583" />
      <path
         d="m 283.44633,192.72113 q 0,0.0339 -0.004,0.0889 -0.002,0.055 -0.004,0.0952 h 0.009 q 0.0127,-0.0169 0.0381,-0.0487 0.0254,-0.0317 0.0508,-0.0635 0.0275,-0.0339 0.0466,-0.055 l 0.36195,-0.38311 h 0.21802 l -0.45932,0.48471 0.49107,0.64982 h -0.22437 l -0.3937,-0.52917 -0.12911,0.11219 v 0.41698 h -0.18415 v -1.60867 h 0.18415 z"
         id="path18063"
         style="font-size:2.11667px;line-height:1.25;stroke-width:0.264583" />
      <path
         d="m 285.3725,192.3359 q 0.20744,0 0.30692,0.091 0.0995,0.091 0.0995,0.28998 v 0.77259 h -0.13547 l -0.036,-0.16087 h -0.008 q -0.0741,0.0931 -0.15663,0.13758 -0.0804,0.0445 -0.22437,0.0445 -0.15451,0 -0.25611,-0.0804 -0.1016,-0.0825 -0.1016,-0.25611 0,-0.16934 0.13335,-0.26035 0.13335,-0.0931 0.41063,-0.1016 l 0.19262,-0.006 v -0.0677 q 0,-0.14182 -0.0614,-0.19685 -0.0614,-0.055 -0.17357,-0.055 -0.0889,0 -0.16933,0.0275 -0.0804,0.0254 -0.15028,0.0593 l -0.0572,-0.1397 q 0.0741,-0.0402 0.17569,-0.0677 0.1016,-0.0296 0.21167,-0.0296 z m 0.055,0.60537 q -0.21166,0.008 -0.29421,0.0677 -0.0804,0.0593 -0.0804,0.16721 0,0.0952 0.0572,0.1397 0.0593,0.0444 0.15028,0.0444 0.14394,0 0.23919,-0.0783 0.0953,-0.0804 0.0953,-0.24553 v -0.1016 z"
         id="path18065"
         style="font-size:2.11667px;line-height:1.25;stroke-width:0.264583" />
      <path
         d="m 286.58536,193.51065 q -0.15029,0 -0.26882,-0.0614 -0.11642,-0.0614 -0.18415,-0.1905 -0.0656,-0.12912 -0.0656,-0.3302 0,-0.20955 0.0698,-0.34078 0.0699,-0.13124 0.18838,-0.19262 0.12065,-0.0614 0.27305,-0.0614 0.0868,0 0.16722,0.019 0.0804,0.0169 0.13124,0.0423 l -0.0571,0.15452 q -0.0508,-0.019 -0.11854,-0.036 -0.0677,-0.0169 -0.127,-0.0169 -0.33443,0 -0.33443,0.42968 0,0.20532 0.0804,0.31538 0.0826,0.10796 0.24341,0.10796 0.0931,0 0.16299,-0.019 0.072,-0.019 0.13123,-0.0466 v 0.16511 q -0.0572,0.0296 -0.127,0.0444 -0.0677,0.0169 -0.1651,0.0169 z"
         id="path18067"
         style="font-size:2.11667px;line-height:1.25;stroke-width:0.264583" />
      <path
         d="m 287.60136,193.51065 q -0.15029,0 -0.26882,-0.0614 -0.11642,-0.0614 -0.18415,-0.1905 -0.0656,-0.12912 -0.0656,-0.3302 0,-0.20955 0.0699,-0.34078 0.0698,-0.13124 0.18838,-0.19262 0.12065,-0.0614 0.27305,-0.0614 0.0868,0 0.16722,0.019 0.0804,0.0169 0.13123,0.0423 l -0.0572,0.15452 q -0.0508,-0.019 -0.11853,-0.036 -0.0677,-0.0169 -0.127,-0.0169 -0.33443,0 -0.33443,0.42968 0,0.20532 0.0804,0.31538 0.0826,0.10796 0.24341,0.10796 0.0931,0 0.16299,-0.019 0.072,-0.019 0.13123,-0.0466 v 0.16511 q -0.0571,0.0296 -0.127,0.0444 -0.0677,0.0169 -0.1651,0.0169 z"
         id="path18069"
         style="font-size:2.11667px;line-height:1.25;stroke-width:0.264583" />
      <path
         d="m 288.60043,192.33378 q 0.14605,0 0.24976,0.0635 0.10584,0.0635 0.16087,0.17992 0.0572,0.1143 0.0572,0.26882 v 0.11218 h -0.77682 q 0.004,0.19262 0.0974,0.29422 0.0953,0.0995 0.26459,0.0995 0.10795,0 0.1905,-0.019 0.0847,-0.0212 0.17356,-0.0593 v 0.16298 q -0.0868,0.0381 -0.17145,0.055 -0.0847,0.019 -0.20108,0.019 -0.16087,0 -0.28575,-0.0656 -0.12277,-0.0656 -0.19262,-0.19473 -0.0677,-0.13124 -0.0677,-0.31962 0,-0.18627 0.0614,-0.31962 0.0635,-0.13335 0.17569,-0.20531 0.1143,-0.072 0.26458,-0.072 z m -0.002,0.1524 q -0.13335,0 -0.21167,0.0868 -0.0762,0.0847 -0.091,0.23707 h 0.57785 q -0.002,-0.14393 -0.0677,-0.23283 -0.0656,-0.091 -0.20743,-0.091 z"
         id="path18071"
         style="font-size:2.11667px;line-height:1.25;stroke-width:0.264583" />
      <path
         d="m 289.90218,192.33378 q 0.2032,0 0.30691,0.0995 0.10372,0.0974 0.10372,0.3175 v 0.73872 h -0.18415 v -0.72602 q 0,-0.27305 -0.254,-0.27305 -0.18838,0 -0.26035,0.10583 -0.072,0.10584 -0.072,0.30481 v 0.58843 h -0.18627 v -1.13453 h 0.15029 l 0.0275,0.15451 h 0.0106 q 0.055,-0.0889 0.1524,-0.13123 0.0974,-0.0445 0.20531,-0.0445 z"
         id="path18073"
         style="font-size:2.11667px;line-height:1.25;stroke-width:0.264583" />
      <path
         d="m 291.04306,193.35825 q 0.0423,0 0.0868,-0.006 0.0444,-0.009 0.072,-0.0169 v 0.14182 q -0.0296,0.0148 -0.0847,0.0233 -0.055,0.0106 -0.10583,0.0106 -0.0889,0 -0.1651,-0.0296 -0.0741,-0.0318 -0.12065,-0.10795 -0.0466,-0.0762 -0.0466,-0.21378 v -0.66041 h -0.16087 v -0.0889 l 0.16298,-0.0741 0.0741,-0.2413 h 0.11007 v 0.26035 h 0.32808 v 0.14394 h -0.32808 v 0.65617 q 0,0.10371 0.0487,0.15451 0.0508,0.0487 0.12912,0.0487 z"
         id="path18075"
         style="font-size:2.11667px;line-height:1.25;stroke-width:0.264583" />
      <path
         d="m 315.13958,192.64187 q 0,0.38312 -0.20955,0.57785 -0.20744,0.19262 -0.57997,0.19262 h -0.42122 v -1.51131 h 0.46567 q 0.2286,0 0.39582,0.0847 0.16721,0.0847 0.25823,0.24977 0.091,0.16298 0.091,0.4064 z m -0.20109,0.006 q 0,-0.30269 -0.15028,-0.44239 -0.14817,-0.14181 -0.42122,-0.14181 h -0.24765 v 1.18533 h 0.20532 q 0.61383,0 0.61383,-0.60113 z"
         id="path18078"
         style="font-size:2.11667px;line-height:1.25;stroke-width:0.264583" />
      <path
         d="m 315.87829,192.25875 q 0.20744,0 0.30692,0.091 0.0995,0.091 0.0995,0.28998 v 0.77259 h -0.13547 l -0.036,-0.16087 h -0.009 q -0.0741,0.0931 -0.15663,0.13759 -0.0804,0.0445 -0.22437,0.0445 -0.15451,0 -0.25611,-0.0804 -0.1016,-0.0825 -0.1016,-0.25612 0,-0.16934 0.13335,-0.26035 0.13335,-0.0931 0.41063,-0.1016 l 0.19262,-0.006 v -0.0677 q 0,-0.14182 -0.0614,-0.19685 -0.0614,-0.055 -0.17357,-0.055 -0.0889,0 -0.16933,0.0275 -0.0804,0.0254 -0.15029,0.0593 l -0.0572,-0.1397 q 0.0741,-0.0402 0.17569,-0.0677 0.1016,-0.0296 0.21166,-0.0296 z m 0.055,0.60537 q -0.21166,0.008 -0.29421,0.0677 -0.0804,0.0593 -0.0804,0.16721 0,0.0953 0.0572,0.1397 0.0593,0.0445 0.15028,0.0445 0.14393,0 0.23918,-0.0783 0.0953,-0.0804 0.0953,-0.24554 v -0.1016 z"
         id="path18080"
         style="font-size:2.11667px;line-height:1.25;stroke-width:0.264583" />
      <path
         d="m 317.16523,192.25663 q 0.0317,0 0.0677,0.004 0.0381,0.002 0.0656,0.008 l -0.0233,0.17145 q -0.0275,-0.006 -0.0614,-0.0106 -0.0317,-0.004 -0.0614,-0.004 -0.0868,0 -0.16298,0.0487 -0.0762,0.0466 -0.12277,0.13335 -0.0444,0.0847 -0.0444,0.19897 v 0.60537 h -0.18626 v -1.13454 h 0.1524 l 0.0212,0.20744 h 0.009 q 0.055,-0.0931 0.14181,-0.16087 0.0868,-0.0677 0.20532,-0.0677 z"
         id="path18082"
         style="font-size:2.11667px;line-height:1.25;stroke-width:0.264583" />
      <path
         d="m 317.6944,192.64399 q 0,0.0339 -0.004,0.0889 -0.002,0.055 -0.004,0.0953 h 0.009 q 0.0127,-0.0169 0.0381,-0.0487 0.0254,-0.0317 0.0508,-0.0635 0.0275,-0.0339 0.0466,-0.055 l 0.36195,-0.38312 h 0.21802 l -0.45932,0.48472 0.49107,0.64981 h -0.22437 l -0.3937,-0.52916 -0.12912,0.11218 v 0.41698 h -0.18415 v -1.60867 h 0.18415 z"
         id="path18084"
         style="font-size:2.11667px;line-height:1.25;stroke-width:0.264583" />
      <path
         d="m 319.9296,193.09907 q 0,0.1651 -0.12276,0.24977 -0.12277,0.0847 -0.3302,0.0847 -0.11854,0 -0.20532,-0.0191 -0.0847,-0.019 -0.15028,-0.0529 v -0.16934 q 0.0677,0.0339 0.16298,0.0635 0.0974,0.0275 0.19685,0.0275 0.14182,0 0.20532,-0.0445 0.0635,-0.0466 0.0635,-0.12276 0,-0.0423 -0.0233,-0.0762 -0.0233,-0.0339 -0.0847,-0.0677 -0.0593,-0.0339 -0.17145,-0.0762 -0.11007,-0.0423 -0.18839,-0.0847 -0.0783,-0.0423 -0.12065,-0.10161 -0.0423,-0.0593 -0.0423,-0.1524 0,-0.14393 0.11642,-0.22225 0.11853,-0.0783 0.30903,-0.0783 0.10372,0 0.19262,0.0212 0.091,0.0191 0.16933,0.055 l -0.0635,0.14816 q -0.072,-0.0296 -0.15028,-0.0508 -0.0783,-0.0212 -0.16087,-0.0212 -0.1143,0 -0.17568,0.0381 -0.0593,0.036 -0.0593,0.0995 0,0.0466 0.0275,0.0804 0.0275,0.0318 0.091,0.0635 0.0656,0.0296 0.17357,0.072 0.10795,0.0402 0.18415,0.0825 0.0762,0.0423 0.11641,0.10372 0.0402,0.0593 0.0402,0.15028 z"
         id="path18086"
         style="font-size:2.11667px;line-height:1.25;stroke-width:0.264583" />
      <path
         d="m 320.39104,192.27568 q 0,0.0847 -0.0106,0.15875 h 0.0127 q 0.055,-0.0868 0.14816,-0.13123 0.0953,-0.0445 0.20532,-0.0445 0.20743,0 0.31115,0.0995 0.10372,0.0974 0.10372,0.31538 v 0.73872 h -0.18415 v -0.72602 q 0,-0.27304 -0.254,-0.27304 -0.1905,0 -0.26247,0.10794 -0.0699,0.10584 -0.0699,0.3048 v 0.58632 h -0.18627 v -1.60867 h 0.18627 z"
         id="path18088"
         style="font-size:2.11667px;line-height:1.25;stroke-width:0.264583" />
      <path
         d="m 321.94256,192.25875 q 0.20743,0 0.30691,0.091 0.0995,0.091 0.0995,0.28998 v 0.77259 h -0.13547 l -0.036,-0.16087 h -0.008 q -0.0741,0.0931 -0.15663,0.13759 -0.0804,0.0445 -0.22437,0.0445 -0.15452,0 -0.25612,-0.0804 -0.1016,-0.0825 -0.1016,-0.25612 0,-0.16934 0.13335,-0.26035 0.13335,-0.0931 0.41064,-0.1016 l 0.19261,-0.006 v -0.0677 q 0,-0.14182 -0.0614,-0.19685 -0.0614,-0.055 -0.17357,-0.055 -0.0889,0 -0.16933,0.0275 -0.0804,0.0254 -0.15028,0.0593 l -0.0572,-0.1397 q 0.0741,-0.0402 0.17568,-0.0677 0.1016,-0.0296 0.21167,-0.0296 z m 0.055,0.60537 q -0.21167,0.008 -0.29422,0.0677 -0.0804,0.0593 -0.0804,0.16721 0,0.0953 0.0572,0.1397 0.0593,0.0445 0.15028,0.0445 0.14394,0 0.23919,-0.0783 0.0952,-0.0804 0.0952,-0.24554 v -0.1016 z"
         id="path18090"
         style="font-size:2.11667px;line-height:1.25;stroke-width:0.264583" />
      <path
         d="m 323.10249,193.4335 q -0.21166,0 -0.33866,-0.14605 -0.127,-0.14817 -0.127,-0.44026 0,-0.29211 0.127,-0.44027 0.12911,-0.15029 0.34078,-0.15029 0.13123,0 0.21379,0.0487 0.0847,0.0487 0.13758,0.11854 h 0.0127 q -0.002,-0.0275 -0.008,-0.0804 -0.004,-0.055 -0.004,-0.0868 v -0.45297 h 0.18627 v 1.60867 h -0.15029 l -0.0275,-0.1524 h -0.008 q -0.0508,0.072 -0.13547,0.12277 -0.0847,0.0508 -0.21802,0.0508 z m 0.0296,-0.15451 q 0.17992,0 0.25188,-0.0974 0.0741,-0.0995 0.0741,-0.29845 v -0.0339 q 0,-0.21166 -0.0699,-0.32385 -0.0698,-0.1143 -0.25824,-0.1143 -0.15028,0 -0.22648,0.12065 -0.0741,0.11854 -0.0741,0.31962 0,0.2032 0.0741,0.31538 0.0762,0.11219 0.2286,0.11219 z"
         id="path18092"
         style="font-size:2.11667px;line-height:1.25;stroke-width:0.264583" />
      <path
         d="m 324.44023,192.25663 q 0.14605,0 0.24977,0.0635 0.10583,0.0635 0.16086,0.17992 0.0571,0.1143 0.0571,0.26882 v 0.11218 h -0.77681 q 0.004,0.19262 0.0974,0.29422 0.0953,0.0995 0.26459,0.0995 0.10795,0 0.1905,-0.0191 0.0847,-0.0212 0.17356,-0.0593 v 0.16298 q -0.0868,0.0381 -0.17145,0.055 -0.0847,0.019 -0.20108,0.019 -0.16087,0 -0.28575,-0.0656 -0.12277,-0.0656 -0.19262,-0.19473 -0.0677,-0.13123 -0.0677,-0.31962 0,-0.18627 0.0614,-0.31962 0.0635,-0.13335 0.17569,-0.20531 0.1143,-0.072 0.26458,-0.072 z m -0.002,0.1524 q -0.13335,0 -0.21166,0.0868 -0.0762,0.0847 -0.091,0.23707 h 0.57785 q -0.002,-0.14393 -0.0677,-0.23283 -0.0656,-0.091 -0.20744,-0.091 z"
         id="path18094"
         style="font-size:2.11667px;line-height:1.25;stroke-width:0.264583" />
      <path
         d="m 325.9346,193.09907 q 0,0.1651 -0.12277,0.24977 -0.12277,0.0847 -0.3302,0.0847 -0.11853,0 -0.20532,-0.0191 -0.0847,-0.019 -0.15028,-0.0529 v -0.16934 q 0.0677,0.0339 0.16298,0.0635 0.0974,0.0275 0.19685,0.0275 0.14182,0 0.20532,-0.0445 0.0635,-0.0466 0.0635,-0.12276 0,-0.0423 -0.0233,-0.0762 -0.0233,-0.0339 -0.0847,-0.0677 -0.0593,-0.0339 -0.17145,-0.0762 -0.11007,-0.0423 -0.18838,-0.0847 -0.0783,-0.0423 -0.12065,-0.10161 -0.0423,-0.0593 -0.0423,-0.1524 0,-0.14393 0.11642,-0.22225 0.11853,-0.0783 0.30903,-0.0783 0.10372,0 0.19262,0.0212 0.091,0.0191 0.16933,0.055 l -0.0635,0.14816 q -0.072,-0.0296 -0.15028,-0.0508 -0.0783,-0.0212 -0.16087,-0.0212 -0.1143,0 -0.17568,0.0381 -0.0593,0.036 -0.0593,0.0995 0,0.0466 0.0275,0.0804 0.0275,0.0318 0.091,0.0635 0.0656,0.0296 0.17356,0.072 0.10795,0.0402 0.18415,0.0825 0.0762,0.0423 0.11642,0.10372 0.0402,0.0593 0.0402,0.15028 z"
         id="path18096"
         style="font-size:2.11667px;line-height:1.25;stroke-width:0.264583" />
      <path
         id="path44577"
         style="fill:#0d0d11;fill-opacity:1;stroke-width:0.314105"
         d="m 359.38951,202.25008 a 6.614583,6.614583 0 0 1 -6.61458,6.61459 6.614583,6.614583 0 0 1 -6.61458,-6.61459 6.614583,6.614583 0 0 1 6.61458,-6.61458 6.614583,6.614583 0 0 1 6.61458,6.61458 z" />
    </g>
    <rect
       style="fill:#200b0d;fill-opacity:1;stroke-width:0.264583"
       id="rect90211"
       width="196.35573"
       height="156.27296"
       x="87.741974"
       y="140.83379" />
  </g>
</svg>
